<?xml version="1.0" encoding="utf-8"?>
<!-- Generator: Adobe Illustrator 19.2.1, SVG Export Plug-In . SVG Version: 6.00 Build 0)  -->
<svg version="1.1" id="fca1f304-68c0-4421-9b0a-36be30cdbe57"
	 xmlns="http://www.w3.org/2000/svg" xmlns:xlink="http://www.w3.org/1999/xlink" x="0px" y="0px" viewBox="0 0 1024 217.2"
	 style="enable-background:new 0 0 1024 217.2;" xml:space="preserve">
<style type="text/css">
	.st0{fill:#fff;}
</style>
<title>00-logo-ofertia</title>
<path class="st0" d="M958,182.7c0.1-18.2,14.9-32.9,33.1-32.9c18.2,0.1,32.9,14.9,32.9,33.1c-0.1,18.2-14.8,32.9-33,32.9
	C972.7,215.8,958,201,958,182.7z M1016,34.2l-3.7,98.1h-19.1c-19.1,0-29.9-13-30.5-31.3l-3.7-98.4h27.4
	C1005.5,2.6,1016.6,15.3,1016,34.2L1016,34.2z M205,105.6c0,68.9-38.4,111.6-105.5,111.6C43.1,217.3,0,176.3,0,111.4
	C0,44.3,39.2,0.1,105.8,0.1C156.5,0,205,37.9,205,105.6z M148,110.7c0-45.4-16.2-64.4-48-64.4c-28.1,0-43,24.3-43,59.3
	c0,43.9,16.8,65,48,65C130.7,170.6,148.1,148.9,148,110.7L148,110.7z M470.4,115.6c0,30.9-23.2,39-75.2,39h-22.9
	c3.1,15.4,15.6,22.7,37.7,22.7c24.6,0,40-3.9,48.6-9.8h2v12.3c0,19.6-15.9,37.3-59.8,37.3c-46.1,0-73.3-27.1-79.6-62.2h-50.7v62.3
	h-16.2c-25.2,0-35.5-9.8-35.5-33.1V73.3c0-55.6,33.3-71,62.3-71c26,0,35.8,13.2,35.8,29.2v12.3h-1.4c-5.9-3.1-16.8-4.2-23.8-4.2
	c-12.6,0-21.2,7.3-21.2,16.6v64.1h50.9c7.1-38.1,36.3-66.6,77.4-66.6C439.1,53.6,470.4,76.4,470.4,115.6z M421.2,109.7
	c0-7.9-7-16.3-22.4-16.3c-18.7,0-26.5,12.1-28,26.9h20.7C416.7,120.4,421.2,116.5,421.2,109.7L421.2,109.7z M574.5,98.2h-1.7
	c-6.7-2.5-11.8-3.1-18.7-3.1c-12.8,0-22.9,6.5-22.9,25.3v96.8h-14.5c-22.9,0-36.9-10.7-36.9-36.5v-71.6c0-31.1,21-55.8,55.9-55.8
	c26.5,0,38.8,10.9,38.8,25.2V98.2L574.5,98.2L574.5,98.2z M783.3,192.5c0,18.5-14,24.7-30.5,24.7c-28.2,0-50.3-14-50.3-50.5V95.4
	h-67.1v60.8c0,10.4,6.4,18.8,16.8,18.8c12.6,0,18.4-1.1,24-3.4h1.4v20.8c0,12.9-11.7,24.7-39.4,24.7c-26.3,0-54.5-14.9-54.5-57.3
	v-115c0-14,8.1-25.2,18.4-33.1c7-5.3,16.5-10.4,27.7-10.4h5.6v51.9h80.2c30.2,0,40,8.7,40,36.7v66.5c0,13.8,6.4,20.2,21.2,20.2h6.4
	L783.3,192.5L783.3,192.5L783.3,192.5z M751.3,27.8c0,12.5-10.5,22.6-23.7,22.6s-23.9-10.1-23.9-22.6s10.8-22.5,23.9-22.5
	S751.3,15.4,751.3,27.8L751.3,27.8z M930.1,144.8c0,56.1-17.9,72.1-73.8,72.1c-29.6,0-65.7-14-65.7-49.1c0-34.2,24.6-51.6,80.5-51.6
	h7.5v-6.5c0-12.6-9.8-15.7-30.8-15.7c-28.8,0-39.4,6.7-50.3,16.8h-1.4V92.1c0-19.1,19.8-38.1,63.7-38.1c42.5,0,70.2,21.6,70.2,67
	L930.1,144.8L930.1,144.8z M879.8,160.8v-11.5h-10.6c-20.1,0-28.2,5.1-28.2,15.4c0,9.8,6.2,14.9,21,14.9
	C871.4,179.6,879.8,174.8,879.8,160.8L879.8,160.8z"/>
</svg>
