<svg xmlns="http://www.w3.org/2000/svg" viewBox="0 0 23.69 15">
    <defs>
        <style>.cls-1{fill:#fff;}</style>
    </defs>
    <title>01_menu_sector</title>
    <path class="cls-1" d="M147.1,409.65H124.4a0.5,0.5,0,0,1,0-1H147.1A0.5,0.5,0,1,1,147.1,409.65Z"
          transform="translate(-123.9 -408.65)"/>
    <path class="cls-1" d="M147.1,416.65H124.4a0.5,0.5,0,0,1,0-1H147.1A0.5,0.5,0,1,1,147.1,416.65Z"
          transform="translate(-123.9 -408.65)"/>
    <path class="cls-1" d="M147.1,423.65H124.4a0.5,0.5,0,0,1,0-1H147.1A0.5,0.5,0,1,1,147.1,423.65Z"
          transform="translate(-123.9 -408.65)"/>
</svg>